<svg width="168" height="299" viewBox="0 0 168 299" fill="none" xmlns="http://www.w3.org/2000/svg">
<rect y="67" width="43" height="43" fill="white"/>
<rect y="195" width="43" height="43" fill="white"/>
<path d="M142.528 45.944L160.064 58.488C150.336 68.472 142.187 78.712 135.616 89.208C129.131 99.6187 124.224 110.328 120.896 121.336C117.653 132.344 116.032 143.651 116.032 155.256C116.032 172.493 119.701 189.133 127.04 205.176C134.379 221.133 145.387 236.621 160.064 251.64L142.528 264.568C125.205 248.867 112.235 231.715 103.616 213.112C94.9973 194.509 90.688 175.224 90.688 155.256C90.688 135.032 94.9973 115.661 103.616 97.144C112.235 78.5413 125.205 61.4747 142.528 45.944Z" fill="white"/>
</svg>
